<svg t="1564361493949" class="icon" viewBox="0 0 1024 1024" version="1.1" xmlns="http://www.w3.org/2000/svg" p-id="1866" width="200" height="200"><path d="M701.407 248.607c-50.591-50.596-117.858-78.457-189.406-78.457-71.55 0-138.817 27.86-189.413 78.457-50.591 50.59-78.452 117.858-78.452 189.407 0 55.303 16.72 108.394 48.353 153.535 26.445 37.744 61.624 67.677 102.627 87.542l-42.234 143.695c-3.882 13.204 3.673 27.044 16.871 30.926 13.204 3.88 27.045-3.677 30.926-16.877l54.929-186.888-21.485-8.22c-40.794-15.603-75.659-42.842-100.835-78.766-25.732-36.722-39.335-79.925-39.335-124.947 0-58.24 22.681-112.999 63.866-154.177 41.183-41.184 95.941-63.866 154.182-63.866 58.239 0 112.997 22.682 154.18 63.866 41.185 41.183 63.862 95.937 63.862 154.177 0 45.022-13.599 88.225-39.331 124.947-25.176 35.924-60.046 63.163-100.835 78.766l-21.485 8.22 54.929 186.888c3.188 10.857 13.118 17.893 23.885 17.893 2.328 0 4.693-0.328 7.036-1.016 13.198-3.882 20.753-17.722 16.876-30.926L628.884 679.09c41.003-19.865 76.182-49.798 102.627-87.542 31.633-45.14 48.353-98.232 48.353-153.535 0-71.55-27.86-138.816-78.457-189.407z m0 0M178.607 602.144c-15.617-22.287-23.87-48.515-23.87-75.844 0-43.9 21.717-84.87 58.089-109.58 11.378-7.732 14.334-23.225 6.603-34.604-7.73-11.38-23.223-14.335-34.603-6.604-50.039 33.994-79.91 90.368-79.91 150.788 0 37.616 11.375 73.726 32.893 104.437 16.34 23.315 37.578 42.248 62.236 55.652l-46.657 135.304c-4.485 13.004 2.423 27.183 15.427 31.667a24.77 24.77 0 0 0 8.12 1.368c10.334 0 19.992-6.48 23.551-16.796l61.847-179.348-22.501-8.61c-24.765-9.473-45.936-26.013-61.225-47.83z m0 0M886.191 630.733c21.518-30.707 32.893-66.817 32.893-104.433 0-60.059-29.59-116.233-79.155-150.275-11.34-7.788-26.849-4.908-34.637 6.433-7.787 11.34-4.908 26.849 6.433 34.636 36.029 24.744 57.538 65.567 57.538 109.206 0 27.33-8.253 53.557-23.87 75.844-15.29 21.817-36.462 38.357-61.225 47.83l-22.501 8.61 61.847 179.348c3.559 10.316 13.217 16.796 23.551 16.796 2.69 0 5.43-0.441 8.12-1.368 13.004-4.484 19.912-18.663 15.427-31.667l-46.657-135.31c24.66-13.398 45.896-32.331 62.236-55.65z m0 0" p-id="1867"></path></svg>